<svg width="496" height="496" viewBox="0 0 496 496" fill="none" xmlns="http://www.w3.org/2000/svg">
<path d="M496 248C496 385 385 496 248 496C111 496 0 385 0 248C0 111 111 0 248 0C385 0 496 111 496 248ZM352.4 219.1L280 294.6V112C280 98.7 269.3 88 256 88H240C226.7 88 216 98.7 216 112V294.6L143.6 219.1C134.3 209.4 118.8 209.2 109.3 218.7L98.4 229.7C89 239.1 89 254.3 98.4 263.6L231 396.3C240.4 405.7 255.6 405.7 264.9 396.3L397.6 263.6C407 254.2 407 239 397.6 229.7L386.7 218.7C377.2 209.2 361.7 209.4 352.4 219.1Z" fill="white"/>
</svg>
